<?xml version="1.0" standalone="no"?>
<!DOCTYPE svg PUBLIC "-//W3C//DTD SVG 20010904//EN"
 "http://www.w3.org/TR/2001/REC-SVG-20010904/DTD/svg10.dtd">
<svg version="1.0" xmlns="http://www.w3.org/2000/svg"
 width="384.000000pt" height="384.000000pt" viewBox="0 0 384.000000 384.000000"
 preserveAspectRatio="xMidYMid meet">
<metadata>
Created by potrace 1.11, written by Peter Selinger 2001-2013
</metadata>
<g transform="translate(0.000000,384.000000) scale(0.100000,-0.100000)"
fill="#000000" stroke="none">
<path d="M722 3776 c-9 -14 -9 -1764 0 -1779 7 -12 281 -18 300 -6 8 5 12 99
13 316 1 169 3 313 3 319 1 8 37 11 111 10 100 -1 125 -6 126 -24 1 -7 32
-113 59 -202 7 -25 19 -65 26 -90 7 -25 16 -54 20 -65 4 -11 18 -56 30 -100
37 -134 47 -158 66 -165 15 -5 249 -6 302 -1 9 1 11 8 7 22 -4 12 -8 27 -9 33
-2 6 -13 45 -26 86 -13 41 -24 77 -25 80 -1 3 -5 13 -8 23 -17 43 -20 53 -22
62 -1 6 -3 12 -4 15 -2 3 -4 12 -6 20 -4 19 -54 180 -62 200 -4 8 -7 17 -8 20
0 3 -11 39 -24 80 -18 58 -20 75 -10 79 26 8 95 88 116 131 11 25 26 70 32
100 6 30 14 66 16 80 6 28 7 366 2 390 -2 8 -7 37 -12 64 -18 110 -77 207
-155 253 -91 54 -109 56 -493 58 -253 2 -360 -1 -365 -9z m578 -281 c110 -18
132 -62 135 -258 3 -288 -19 -314 -266 -313 l-134 1 -1 280 c-1 154 2 285 7
290 8 12 192 12 259 0z"/>
<path d="M1948 3783 c-13 -3 -15 -9 -8 -21 5 -9 19 -39 31 -67 12 -27 37 -83
55 -123 19 -41 34 -75 34 -77 0 -2 16 -39 36 -82 65 -140 77 -168 76 -175 -1
-5 2 -8 7 -8 5 0 12 -11 15 -25 3 -13 23 -62 45 -107 92 -199 95 -207 83 -231
-6 -12 -22 -47 -35 -77 -34 -74 -69 -153 -103 -225 -15 -33 -28 -62 -29 -65
-6 -17 -28 -68 -64 -144 -23 -49 -41 -89 -41 -91 0 -1 -20 -45 -44 -96 -66
-141 -78 -172 -67 -178 11 -7 318 -7 325 0 5 4 91 208 94 219 1 6 19 52 34 88
6 15 12 29 13 32 4 11 19 47 36 87 11 23 19 44 19 47 0 2 10 26 22 53 12 26
22 50 23 53 30 88 31 89 59 26 14 -32 26 -64 26 -70 0 -7 4 -16 8 -21 5 -6 17
-30 26 -55 10 -25 24 -58 31 -75 11 -27 25 -61 30 -75 1 -3 7 -16 12 -30 6
-14 34 -81 62 -149 28 -68 53 -127 56 -130 8 -7 332 -7 340 0 4 5 -21 71 -55
144 -25 53 -122 271 -124 280 -2 6 -12 30 -23 55 -29 65 -36 84 -35 93 1 4 -3
7 -8 7 -6 0 -10 4 -10 10 0 5 -11 33 -24 62 -95 211 -106 237 -106 256 0 9 47
123 105 254 58 130 105 242 105 248 0 5 4 10 9 10 5 0 12 11 15 24 3 14 19 53
35 88 94 206 115 257 103 260 -4 0 -76 2 -160 3 -174 3 -162 9 -202 -94 -12
-30 -31 -75 -42 -100 -12 -25 -21 -52 -21 -58 0 -7 -4 -13 -9 -13 -4 0 -8 -8
-8 -18 0 -10 -3 -22 -7 -26 -5 -4 -8 -11 -8 -14 -1 -4 -11 -29 -23 -56 -12
-27 -22 -51 -22 -54 0 -2 -9 -23 -19 -46 -28 -59 -48 -108 -56 -133 -3 -13
-10 -23 -14 -23 -7 0 -34 52 -36 70 -1 3 -9 23 -19 45 -10 22 -27 63 -38 90
-11 28 -25 61 -31 75 -5 14 -10 28 -9 33 1 4 -3 7 -10 7 -6 0 -8 3 -5 7 4 3 3
11 -1 17 -5 6 -28 61 -52 121 -24 61 -51 124 -60 140 l-17 30 -154 1 c-85 0
-162 -1 -171 -3z"/>
<path d="M1181 1846 c-5 -6 -18 -45 -30 -86 -26 -90 -28 -96 -40 -140 -5 -19
-15 -55 -23 -80 -8 -25 -15 -47 -16 -50 0 -3 -3 -12 -6 -20 -11 -36 -68 -236
-70 -250 -4 -25 -18 -74 -25 -85 -3 -5 -7 -19 -9 -30 -3 -22 -39 -151 -49
-175 -3 -8 -8 -24 -10 -35 -3 -21 -26 -101 -49 -172 -7 -23 -16 -52 -18 -65
-3 -13 -12 -48 -21 -78 -9 -30 -21 -71 -26 -90 -15 -54 -30 -104 -33 -115 -1
-5 -10 -37 -20 -70 -10 -33 -20 -69 -23 -80 -6 -26 -9 -37 -16 -55 -14 -34
-28 -102 -22 -108 10 -11 125 -9 134 2 5 6 12 25 16 41 5 17 9 35 11 40 2 6 5
19 8 30 3 11 21 76 41 145 42 144 39 134 49 180 5 19 11 40 14 45 4 6 8 19 9
29 2 11 5 21 7 24 3 2 456 5 562 2 18 0 25 -14 48 -93 32 -108 31 -103 41
-142 4 -16 20 -75 36 -129 16 -55 31 -109 33 -120 6 -30 17 -56 25 -57 31 -5
114 -3 123 2 8 5 -5 66 -47 216 -33 114 -60 210 -61 213 -4 21 -19 72 -31 111
-8 25 -16 55 -18 65 -2 10 -4 19 -5 19 -1 0 -3 7 -5 15 -3 17 -34 127 -41 150
-3 8 -5 16 -5 17 0 2 -5 17 -10 35 -10 32 -66 227 -74 258 -2 8 -14 51 -27 95
-14 44 -25 82 -25 85 -11 49 -16 68 -23 85 -4 11 -16 49 -25 85 -9 36 -19 72
-22 80 -3 8 -7 22 -8 30 -2 8 -14 52 -28 98 -14 45 -25 84 -25 85 0 1 -5 14
-10 28 -10 24 -14 25 -81 26 -41 1 -74 -4 -80 -11z m74 -226 c-3 -5 -2 -10 3
-10 5 0 12 -12 15 -27 6 -30 26 -105 52 -193 28 -96 66 -234 69 -250 2 -8 6
-22 9 -30 7 -15 66 -222 72 -251 2 -8 10 -39 19 -67 8 -29 12 -52 8 -53 -19
-3 -488 -5 -494 -2 -3 2 1 29 9 61 8 31 17 64 18 72 2 8 20 71 40 140 21 69
38 130 39 135 10 49 19 82 24 90 4 6 7 15 8 20 1 6 9 37 18 70 10 33 18 65 19
70 2 6 5 15 8 20 4 6 10 28 14 50 5 22 9 42 10 45 1 3 7 25 14 50 17 63 20 70
26 70 4 0 3 -4 0 -10z"/>
<path d="M2479 1855 c-1 0 -3 -402 -4 -893 -1 -802 0 -894 14 -901 19 -9 108
-7 118 3 10 9 10 1786 1 1787 -7 2 -126 5 -129 4z"/>
</g>
</svg>
